<svg width="425" height="526" viewBox="0 0 425 526" fill="none" xmlns="http://www.w3.org/2000/svg">
<g filter="url(#filter0_d_426_440)">
<path fill-rule="evenodd" clip-rule="evenodd" d="M145.141 99.9388C165.189 72.5496 159.518 34.3005 132.475 14.5069C105.433 -5.2866 67.259 0.870885 47.2117 28.2601C27.1644 55.6493 32.8351 93.8984 59.8776 113.692C71.4585 122.168 85.0808 125.886 98.4466 125.214L108.743 150.981L27.2824 181.844L34.4835 200.851C68.781 188.845 101.11 184.459 123.391 187.637L229.259 452.566C223.67 451.458 208.349 448.698 190.438 447.8C184.845 447.519 178.862 447.354 172.798 447.187C158.123 446.781 142.97 446.363 131.697 444.266C129.635 443.882 127.522 443.504 125.385 443.122L125.385 443.122C116.027 441.449 106.217 439.695 98.1658 437.004C83.7552 432.188 73.4852 426.245 71.4513 425.028L91.2488 407.222L7.69962 369.74L36.148 456.78L53.6153 441.07C61.946 447.97 80.9754 462.567 101.74 470.59C122.651 478.67 141.423 482.335 161.745 486.302C169.01 487.72 176.472 489.177 184.301 490.888C188.331 491.769 193.475 492.105 198.816 492.453L198.817 492.453C204.89 492.85 211.218 493.263 216.455 494.512C240.581 500.271 267.023 508.926 275.485 511.761L276.067 513.522C276.067 513.522 276.328 513.062 276.817 512.209C277.749 512.523 278.25 512.696 278.25 512.696L277.7 510.675C282.349 502.627 296.234 478.989 310.3 458.957C313.394 454.552 317.86 450.049 322.146 445.728C325.915 441.927 329.545 438.267 331.98 434.937C336.71 428.468 341.333 422.432 345.834 416.557C358.426 400.119 370.057 384.936 380.365 365.028C392.725 341.156 396.838 311.781 397.533 306.184L417.747 306.349L381.379 222.31L343.641 305.743L367.905 305.942C367.347 315.784 365.654 329.081 360.787 337.505C356.54 344.855 350.354 352.67 344.455 360.123C343.108 361.825 341.775 363.508 340.485 365.163C333.432 374.203 322.36 384.557 311.638 394.585C307.207 398.728 302.836 402.816 298.833 406.732C282.655 422.559 271.532 437.874 271.532 437.874L269.823 438.521L162.782 170.656C178.322 152.711 207.489 133.747 243.413 119.928L236.797 102.465L148.848 135.786L137.847 108.257C140.475 105.75 142.919 102.975 145.141 99.9388ZM117.031 79.5382C124.897 68.7905 122.843 53.9064 112.442 46.2935C102.041 38.6806 87.2321 41.2218 79.3654 51.9695C71.4987 62.7171 73.5532 77.6013 83.9541 85.2142C94.3551 92.8271 109.164 90.2859 117.031 79.5382Z" fill="#23D4E3"/>
<path fill-rule="evenodd" clip-rule="evenodd" d="M145.141 99.9388C165.189 72.5496 159.518 34.3005 132.475 14.5069C105.433 -5.2866 67.259 0.870885 47.2117 28.2601C27.1644 55.6493 32.8351 93.8984 59.8776 113.692C71.4585 122.168 85.0808 125.886 98.4466 125.214L108.743 150.981L27.2824 181.844L34.4835 200.851C68.781 188.845 101.11 184.459 123.391 187.637L229.259 452.566C223.67 451.458 208.349 448.698 190.438 447.8C184.845 447.519 178.862 447.354 172.798 447.187C158.123 446.781 142.97 446.363 131.697 444.266C129.635 443.882 127.522 443.504 125.385 443.122L125.385 443.122C116.027 441.449 106.217 439.695 98.1658 437.004C83.7552 432.188 73.4852 426.245 71.4513 425.028L91.2488 407.222L7.69962 369.74L36.148 456.78L53.6153 441.07C61.946 447.97 80.9754 462.567 101.74 470.59C122.651 478.67 141.423 482.335 161.745 486.302C169.01 487.72 176.472 489.177 184.301 490.888C188.331 491.769 193.475 492.105 198.816 492.453L198.817 492.453C204.89 492.85 211.218 493.263 216.455 494.512C240.581 500.271 267.023 508.926 275.485 511.761L276.067 513.522C276.067 513.522 276.328 513.062 276.817 512.209C277.749 512.523 278.25 512.696 278.25 512.696L277.7 510.675C282.349 502.627 296.234 478.989 310.3 458.957C313.394 454.552 317.86 450.049 322.146 445.728C325.915 441.927 329.545 438.267 331.98 434.937C336.71 428.468 341.333 422.432 345.834 416.557C358.426 400.119 370.057 384.936 380.365 365.028C392.725 341.156 396.838 311.781 397.533 306.184L417.747 306.349L381.379 222.31L343.641 305.743L367.905 305.942C367.347 315.784 365.654 329.081 360.787 337.505C356.54 344.855 350.354 352.67 344.455 360.123C343.108 361.825 341.775 363.508 340.485 365.163C333.432 374.203 322.36 384.557 311.638 394.585C307.207 398.728 302.836 402.816 298.833 406.732C282.655 422.559 271.532 437.874 271.532 437.874L269.823 438.521L162.782 170.656C178.322 152.711 207.489 133.747 243.413 119.928L236.797 102.465L148.848 135.786L137.847 108.257C140.475 105.75 142.919 102.975 145.141 99.9388ZM117.031 79.5382C124.897 68.7905 122.843 53.9064 112.442 46.2935C102.041 38.6806 87.2321 41.2218 79.3654 51.9695C71.4987 62.7171 73.5532 77.6013 83.9541 85.2142C94.3551 92.8271 109.164 90.2859 117.031 79.5382Z" fill="url(#paint0_linear_426_440)"/>
</g>
<defs>
<filter id="filter0_d_426_440" x="0.587391" y="0.536943" width="424.272" height="524.839" filterUnits="userSpaceOnUse" color-interpolation-filters="sRGB">
<feFlood flood-opacity="0" result="BackgroundImageFix"/>
<feColorMatrix in="SourceAlpha" type="matrix" values="0 0 0 0 0 0 0 0 0 0 0 0 0 0 0 0 0 0 127 0" result="hardAlpha"/>
<feOffset dy="4.74154"/>
<feGaussianBlur stdDeviation="3.55616"/>
<feComposite in2="hardAlpha" operator="out"/>
<feColorMatrix type="matrix" values="0 0 0 0 0 0 0 0 0 0 0 0 0 0 0 0 0 0 0.25 0"/>
<feBlend mode="normal" in2="BackgroundImageFix" result="effect1_dropShadow_426_440"/>
<feBlend mode="normal" in="SourceGraphic" in2="effect1_dropShadow_426_440" result="shape"/>
</filter>
<linearGradient id="paint0_linear_426_440" x1="83.7696" y1="3.65566" x2="276.833" y2="513.232" gradientUnits="userSpaceOnUse">
<stop stop-color="#573F9A" stop-opacity="0.29"/>
<stop offset="1" stop-color="#6A889F"/>
</linearGradient>
</defs>
</svg>
