<svg id="visual" viewBox="0 0 960 150" width="960" height="150" xmlns="http://www.w3.org/2000/svg" xmlns:xlink="http://www.w3.org/1999/xlink" version="1.1"><path d="M0 105L22.8 104.7C45.7 104.3 91.3 103.7 137 104C182.7 104.3 228.3 105.7 274 106.8C319.7 108 365.3 109 411.2 107.8C457 106.7 503 103.3 548.8 100.8C594.7 98.3 640.3 96.7 686 95.3C731.7 94 777.3 93 823 92C868.7 91 914.3 90 937.2 89.5L960 89L960 151L937.2 151C914.3 151 868.7 151 823 151C777.3 151 731.7 151 686 151C640.3 151 594.7 151 548.8 151C503 151 457 151 411.2 151C365.3 151 319.7 151 274 151C228.3 151 182.7 151 137 151C91.3 151 45.7 151 22.8 151L0 151Z" fill="#dce8f4"></path><path d="M0 122L22.8 119.5C45.7 117 91.3 112 137 108.8C182.7 105.7 228.3 104.3 274 104C319.7 103.7 365.3 104.3 411.2 106.3C457 108.3 503 111.7 548.8 111.8C594.7 112 640.3 109 686 108.5C731.7 108 777.3 110 823 112.3C868.7 114.7 914.3 117.3 937.2 118.7L960 120L960 151L937.2 151C914.3 151 868.7 151 823 151C777.3 151 731.7 151 686 151C640.3 151 594.7 151 548.8 151C503 151 457 151 411.2 151C365.3 151 319.7 151 274 151C228.3 151 182.7 151 137 151C91.3 151 45.7 151 22.8 151L0 151Z" fill="#b2d7f1"></path><path d="M0 120L22.8 119C45.7 118 91.3 116 137 116.2C182.7 116.3 228.3 118.7 274 120.8C319.7 123 365.3 125 411.2 125C457 125 503 123 548.8 122.2C594.7 121.3 640.3 121.7 686 121.8C731.7 122 777.3 122 823 120.8C868.7 119.7 914.3 117.3 937.2 116.2L960 115L960 151L937.2 151C914.3 151 868.7 151 823 151C777.3 151 731.7 151 686 151C640.3 151 594.7 151 548.8 151C503 151 457 151 411.2 151C365.3 151 319.7 151 274 151C228.3 151 182.7 151 137 151C91.3 151 45.7 151 22.8 151L0 151Z" fill="#7cc7ec"></path><path d="M0 129L22.8 129.3C45.7 129.7 91.3 130.3 137 131.8C182.7 133.3 228.3 135.7 274 136.2C319.7 136.7 365.3 135.3 411.2 135.7C457 136 503 138 548.8 137.2C594.7 136.3 640.3 132.7 686 131.5C731.7 130.3 777.3 131.7 823 131.3C868.7 131 914.3 129 937.2 128L960 127L960 151L937.2 151C914.3 151 868.7 151 823 151C777.3 151 731.7 151 686 151C640.3 151 594.7 151 548.8 151C503 151 457 151 411.2 151C365.3 151 319.7 151 274 151C228.3 151 182.7 151 137 151C91.3 151 45.7 151 22.8 151L0 151Z" fill="#18b9e3"></path></svg>