<svg id="visual" viewBox="0 0 960 150" width="960" height="150" xmlns="http://www.w3.org/2000/svg" xmlns:xlink="http://www.w3.org/1999/xlink" version="1.1"><path d="M0 106L22.8 106.5C45.7 107 91.3 108 137 107.7C182.7 107.3 228.3 105.7 274 106C319.7 106.3 365.3 108.7 411.2 110C457 111.3 503 111.7 548.8 108.5C594.7 105.3 640.3 98.7 686 97C731.7 95.3 777.3 98.7 823 101.2C868.7 103.7 914.3 105.3 937.2 106.2L960 107L960 151L937.2 151C914.3 151 868.7 151 823 151C777.3 151 731.7 151 686 151C640.3 151 594.7 151 548.8 151C503 151 457 151 411.2 151C365.3 151 319.7 151 274 151C228.3 151 182.7 151 137 151C91.3 151 45.7 151 22.8 151L0 151Z" fill="#dce8f4"></path><path d="M0 107L22.8 106.7C45.7 106.3 91.3 105.7 137 105.8C182.7 106 228.3 107 274 107.8C319.7 108.7 365.3 109.3 411.2 108.2C457 107 503 104 548.8 105.8C594.7 107.7 640.3 114.3 686 114.5C731.7 114.7 777.3 108.3 823 107.7C868.7 107 914.3 112 937.2 114.5L960 117L960 151L937.2 151C914.3 151 868.7 151 823 151C777.3 151 731.7 151 686 151C640.3 151 594.7 151 548.8 151C503 151 457 151 411.2 151C365.3 151 319.7 151 274 151C228.3 151 182.7 151 137 151C91.3 151 45.7 151 22.8 151L0 151Z" fill="#b2d7f1"></path><path d="M0 114L22.8 115.8C45.7 117.7 91.3 121.3 137 122.7C182.7 124 228.3 123 274 121.2C319.7 119.3 365.3 116.7 411.2 117.5C457 118.3 503 122.7 548.8 123.5C594.7 124.3 640.3 121.7 686 121.8C731.7 122 777.3 125 823 124.3C868.7 123.7 914.3 119.3 937.2 117.2L960 115L960 151L937.2 151C914.3 151 868.7 151 823 151C777.3 151 731.7 151 686 151C640.3 151 594.7 151 548.8 151C503 151 457 151 411.2 151C365.3 151 319.7 151 274 151C228.3 151 182.7 151 137 151C91.3 151 45.7 151 22.8 151L0 151Z" fill="#7cc7ec"></path><path d="M0 134L22.8 133.5C45.7 133 91.3 132 137 133C182.7 134 228.3 137 274 136.7C319.7 136.3 365.3 132.7 411.2 130.8C457 129 503 129 548.8 129.3C594.7 129.7 640.3 130.3 686 130.3C731.7 130.3 777.3 129.7 823 130C868.7 130.3 914.3 131.7 937.2 132.3L960 133L960 151L937.2 151C914.3 151 868.7 151 823 151C777.3 151 731.7 151 686 151C640.3 151 594.7 151 548.8 151C503 151 457 151 411.2 151C365.3 151 319.7 151 274 151C228.3 151 182.7 151 137 151C91.3 151 45.7 151 22.8 151L0 151Z" fill="#18b9e3"></path></svg>