<svg id="visual" viewBox="0 0 960 540" width="960" height="540" xmlns="http://www.w3.org/2000/svg" xmlns:xlink="http://www.w3.org/1999/xlink" version="1.1"><rect x="0" y="0" width="960" height="540" fill="#001220"></rect><path d="M0 473L32 471.5C64 470 128 467 192 470.3C256 473.7 320 483.3 384 488.8C448 494.3 512 495.7 576 494.8C640 494 704 491 768 488.2C832 485.3 896 482.7 928 481.3L960 480L960 541L928 541C896 541 832 541 768 541C704 541 640 541 576 541C512 541 448 541 384 541C320 541 256 541 192 541C128 541 64 541 32 541L0 541Z" fill="#00527a"></path><path d="M0 478L32 482.7C64 487.3 128 496.7 192 497.7C256 498.7 320 491.3 384 490.5C448 489.7 512 495.3 576 495.5C640 495.7 704 490.3 768 487.5C832 484.7 896 484.3 928 484.2L960 484L960 541L928 541C896 541 832 541 768 541C704 541 640 541 576 541C512 541 448 541 384 541C320 541 256 541 192 541C128 541 64 541 32 541L0 541Z" fill="#04729d"></path><path d="M0 497L32 498.8C64 500.7 128 504.3 192 504.2C256 504 320 500 384 497.2C448 494.3 512 492.7 576 492.5C640 492.3 704 493.7 768 495.3C832 497 896 499 928 500L960 501L960 541L928 541C896 541 832 541 768 541C704 541 640 541 576 541C512 541 448 541 384 541C320 541 256 541 192 541C128 541 64 541 32 541L0 541Z" fill="#0b95c1"></path><path d="M0 508L32 510.2C64 512.3 128 516.7 192 517.3C256 518 320 515 384 515.2C448 515.3 512 518.7 576 518.2C640 517.7 704 513.3 768 513.8C832 514.3 896 519.7 928 522.3L960 525L960 541L928 541C896 541 832 541 768 541C704 541 640 541 576 541C512 541 448 541 384 541C320 541 256 541 192 541C128 541 64 541 32 541L0 541Z" fill="#18b9e3"></path></svg>