<svg xmlns="http://www.w3.org/2000/svg" viewBox="0 0 1920.7 64"><path fill="#adccd3" d="M0 11.5C118 3.8 277.8 0 479.6 0c56.1 0 377.8 18.8 651.9 21 235.1 1.9 547.4-9.5 789.2-9.5V58c-332.9 14.7-573.4-2.1-789.2-3.2-323.2-1.7-540.6-9.3-651.9-9C293.9 46.1 134.1 50.2 0 58V11.5z"/><path fill="#b4d2d8" d="M1920.7 7.9c-230.1 7.4-279.8 12.5-479.1 12.5-56.1 0-239.1 1.9-513.1 3.4C693.3 25.1 429.7-8.1 0 7.9v4.5c.3 29.3 3 8.3.4 18.8 138.7-3.2 414.3 0 789.2 6.3 241.4 4 540.6-6.4 651.9-6.2 185.7.3 345.4.3 479.1 0V7.9z"/></svg>